<?xml version="1.0" standalone="no"?>
<!DOCTYPE svg PUBLIC "-//W3C//DTD SVG 20010904//EN"
 "http://www.w3.org/TR/2001/REC-SVG-20010904/DTD/svg10.dtd">
<svg version="1.0" xmlns="http://www.w3.org/2000/svg"
 width="1718.000000pt" height="1000.000000pt" viewBox="0 0 1718.000000 1000.000000"
 preserveAspectRatio="xMidYMid meet">

<g transform="translate(0.000000,1000.000000) scale(0.100000,-0.100000)"
fill="#000000" stroke="none">
<path d="M0 5000 l0 -5000 8590 0 8590 0 0 5000 0 5000 -8590 0 -8590 0 0
-5000z m2009 3888 c5 -13 14 -48 20 -78 7 -30 16 -73 21 -95 5 -22 64 -287
130 -590 215 -979 212 -969 295 -1005 36 -15 45 -24 45 -43 0 -45 -13 -48
-260 -45 -209 3 -234 5 -244 21 -15 24 2 48 43 62 51 17 81 58 81 110 0 24
-16 122 -35 217 -19 95 -35 176 -35 180 0 4 -7 14 -16 22 -13 13 -44 16 -188
16 -123 0 -177 -4 -188 -12 -23 -18 -80 -283 -82 -379 -1 -93 17 -125 85 -150
36 -13 45 -22 47 -44 2 -16 -2 -32 -10 -36 -15 -10 -348 -12 -372 -3 -26 10
-19 52 12 71 109 67 135 131 241 588 11 50 32 140 46 200 15 61 35 148 46 195
11 47 27 112 34 145 20 80 100 427 125 539 30 129 32 131 118 135 25 1 34 -4
41 -21z m1039 3 c8 -4 12 -20 10 -36 -2 -22 -11 -30 -48 -44 -35 -13 -49 -25
-65 -56 -19 -38 -20 -65 -23 -675 -2 -349 1 -697 6 -773 11 -155 21 -178 90
-194 43 -10 62 -35 46 -60 -10 -16 -34 -18 -230 -21 -120 -1 -229 0 -241 3
-16 4 -23 13 -23 29 0 28 15 41 56 50 17 4 42 18 55 32 l24 26 0 787 c0 887 5
826 -77 853 -35 12 -44 19 -46 43 -2 15 2 32 10 36 7 5 110 9 228 9 118 0 221
-4 228 -9z m1086 -7 c9 -8 16 -27 16 -42 0 -15 5 -147 11 -294 10 -214 9 -271
-1 -283 -7 -8 -15 -15 -19 -15 -24 1 -35 29 -51 137 -42 283 -106 387 -258
421 -78 18 -72 82 -72 -772 0 -473 4 -784 10 -817 12 -64 40 -96 93 -106 47
-10 68 -34 51 -60 -10 -16 -34 -18 -259 -18 -225 0 -249 2 -259 18 -17 26 4
50 51 60 58 11 82 42 93 118 10 70 14 1538 4 1563 -16 41 -155 -2 -207 -64
-62 -73 -99 -194 -123 -393 -9 -76 -36 -106 -64 -71 -11 12 -11 59 -2 247 7
128 12 260 12 294 0 43 5 66 16 77 14 14 71 16 479 16 408 0 465 -2 479 -16z
m560 0 c9 -8 16 -17 16 -19 0 -19 -19 -38 -55 -54 -78 -35 -75 -5 -75 -668 0
-473 3 -606 15 -680 26 -160 78 -265 158 -319 37 -26 51 -29 119 -29 69 0 80
3 120 31 23 17 57 51 74 76 42 61 82 189 95 300 16 145 23 819 10 1007 -13
201 -28 240 -100 274 -49 23 -64 54 -41 83 19 22 342 21 365 -2 9 -9 14 -23
11 -31 -3 -8 -6 -18 -6 -23 0 -4 -18 -15 -39 -23 -21 -9 -48 -29 -58 -44 -44
-63 -45 -84 -53 -683 -8 -599 -11 -646 -57 -785 -42 -130 -117 -226 -212 -272
-51 -25 -66 -27 -163 -27 -103 1 -110 2 -182 37 -88 44 -150 108 -196 201 -70
141 -80 261 -80 946 0 622 2 602 -78 630 -31 10 -45 22 -49 39 -11 46 11 51
238 51 175 0 210 -2 223 -16z m-2554 -1994 c86 -34 136 -42 177 -27 39 14 44
-23 41 -315 -3 -226 -5 -270 -18 -278 -37 -23 -50 -2 -70 111 -24 137 -51 221
-95 294 -71 118 -136 165 -228 165 -173 0 -281 -239 -307 -680 -26 -426 41
-795 171 -954 125 -151 304 -118 427 77 40 65 88 174 99 228 7 35 26 47 48 29
22 -18 19 -57 -11 -146 -96 -289 -253 -421 -474 -398 -103 10 -181 51 -266
139 -110 114 -169 249 -211 490 -24 138 -24 497 0 642 51 315 177 543 344 624
68 33 99 38 198 35 74 -2 105 -9 175 -36z m1100 3 c84 -40 138 -87 194 -171
110 -166 164 -385 173 -698 9 -321 -27 -531 -128 -741 -169 -352 -575 -392
-784 -77 -138 208 -208 642 -160 1002 47 357 165 592 342 679 76 37 106 42
208 40 77 -2 99 -7 155 -34z m4350 2 c63 -23 85 -26 137 -21 59 6 63 5 68 -16
3 -13 4 -137 3 -277 -3 -229 -5 -255 -20 -265 -25 -16 -52 4 -56 40 -5 51 -32
172 -48 221 -70 209 -216 315 -349 254 -162 -73 -247 -363 -247 -846 -1 -282
17 -442 70 -625 28 -97 59 -157 105 -207 54 -58 84 -73 152 -73 61 0 138 32
181 75 l24 24 -1 273 c0 184 -4 284 -12 308 -11 33 -24 43 -92 72 -16 7 -31
22 -33 32 -8 40 20 46 234 46 171 0 205 -2 218 -16 9 -8 16 -20 16 -25 0 -14
-38 -49 -53 -49 -8 0 -24 -12 -38 -26 l-24 -26 -5 -326 -5 -327 -30 -8 c-40
-12 -156 -54 -235 -85 -54 -21 -82 -26 -170 -26 -102 -1 -107 1 -180 37 -85
41 -119 70 -178 149 -74 98 -126 236 -159 423 -24 139 -24 507 0 654 57 352
205 592 405 656 74 23 228 14 322 -20z m2519 -7 c5 -13 14 -48 20 -78 7 -30
16 -73 21 -95 5 -22 64 -287 130 -590 215 -979 212 -969 295 -1005 36 -15 45
-24 45 -43 0 -45 -13 -48 -260 -45 -209 3 -234 5 -244 21 -15 24 2 48 43 62
51 17 81 58 81 110 0 24 -16 122 -35 217 -19 95 -35 176 -35 180 0 4 -7 14
-16 22 -13 13 -44 16 -188 16 -123 0 -177 -4 -188 -12 -23 -18 -80 -283 -82
-379 -1 -93 17 -125 85 -150 36 -13 45 -22 47 -44 2 -16 -2 -32 -10 -36 -15
-10 -348 -12 -372 -3 -26 10 -19 52 12 71 109 67 135 131 241 588 11 50 32
140 46 200 15 61 35 148 46 195 11 47 27 112 34 145 20 80 100 427 125 539 30
129 32 131 118 135 25 1 34 -4 41 -21z m-5709 -13 c157 -43 259 -130 333 -285
78 -165 106 -325 107 -600 0 -566 -145 -864 -460 -941 -40 -10 -134 -14 -339
-14 -259 0 -285 1 -295 18 -16 24 3 49 45 60 19 5 42 16 51 24 36 32 39 100
36 854 -3 842 1 797 -85 822 -52 15 -67 43 -42 74 20 23 555 14 649 -12z
m1048 16 c8 -4 12 -20 10 -36 -2 -22 -11 -30 -48 -44 -35 -13 -49 -25 -65 -56
-19 -38 -20 -65 -23 -675 -2 -349 1 -697 6 -773 11 -155 21 -178 90 -194 43
-10 62 -35 46 -60 -10 -16 -34 -18 -230 -21 -120 -1 -229 0 -241 3 -16 4 -23
13 -23 29 0 28 15 41 56 50 17 4 42 18 55 32 l24 26 0 787 c0 887 5 826 -77
853 -35 12 -44 19 -46 43 -2 15 2 32 10 36 7 5 110 9 228 9 118 0 221 -4 228
-9z m429 1 c14 -9 37 -58 163 -347 378 -865 434 -988 445 -984 6 3 10 193 10
544 0 482 -2 546 -17 595 -18 59 -47 93 -88 105 -36 11 -50 24 -50 49 0 43 15
46 200 46 187 0 200 -3 200 -47 0 -18 -10 -28 -43 -42 -59 -25 -83 -59 -101
-141 -14 -59 -16 -176 -16 -847 0 -593 -3 -782 -12 -791 -7 -7 -33 -12 -60
-12 -39 0 -50 4 -63 23 -13 20 -152 335 -255 577 -15 36 -73 171 -130 300 -56
129 -134 309 -173 400 -72 169 -83 190 -98 190 -5 0 -9 -261 -9 -597 0 -732 2
-744 105 -792 51 -24 62 -40 45 -70 -10 -20 -19 -21 -185 -21 -95 0 -180 3
-189 6 -10 4 -16 18 -16 35 0 25 6 32 43 48 114 50 117 72 117 886 0 721 -1
728 -61 779 -17 14 -37 26 -44 26 -18 0 -45 28 -45 45 0 7 7 21 16 29 13 13
42 16 157 16 78 0 147 -4 154 -8z m3127 -5 c25 -19 16 -49 -19 -65 -66 -28
-79 -38 -91 -72 -10 -27 -13 -217 -13 -827 l-1 -792 22 -12 c29 -16 171 -3
223 20 107 48 173 168 210 386 8 49 19 93 24 98 13 13 49 -1 53 -21 2 -9 0
-68 -4 -132 -24 -370 -29 -424 -41 -432 -6 -4 -196 -7 -421 -5 -377 2 -410 3
-420 20 -16 25 3 50 46 60 60 14 80 45 89 139 10 108 10 1318 0 1426 -9 94
-21 113 -86 135 -43 15 -57 45 -35 73 17 20 437 21 464 1z m2254 3 c167 -21
263 -82 318 -203 28 -59 29 -68 29 -212 0 -174 -13 -227 -76 -312 -36 -48
-103 -91 -181 -117 -31 -10 -20 -22 35 -39 118 -37 193 -112 238 -236 22 -60
24 -82 24 -236 0 -162 -1 -174 -28 -247 -47 -127 -136 -204 -277 -239 -40 -10
-133 -14 -349 -14 -269 0 -295 1 -305 18 -16 24 3 49 45 60 19 5 42 16 51 24
36 32 39 100 36 854 -3 842 1 797 -85 822 -36 11 -49 19 -51 36 -8 49 3 51
257 51 130 0 274 -5 319 -10z m-9154 -1973 c13 -9 17 -24 14 -56 -3 -48 -12
-57 -72 -66 -47 -8 -89 -47 -107 -101 -16 -47 -26 -1364 -11 -1364 15 0 24 15
104 170 202 388 456 902 477 965 14 40 25 104 28 150 5 99 -13 134 -84 166
-27 12 -55 25 -63 29 -23 11 -26 91 -4 107 14 10 89 13 316 13 285 0 299 -1
318 -20 23 -23 26 -68 8 -91 -7 -9 -34 -24 -60 -33 -90 -33 -191 -138 -287
-298 -50 -83 -264 -484 -337 -630 l-48 -96 17 -49 c20 -62 16 -50 297 -824
132 -361 256 -694 278 -740 49 -106 106 -178 165 -209 45 -24 57 -42 57 -87 0
-50 -14 -53 -256 -53 -130 0 -233 4 -244 10 -10 5 -22 24 -25 42 -9 38 -54
175 -125 383 -63 182 -254 739 -317 925 -51 149 -59 166 -78 150 -7 -6 -43
-69 -79 -141 l-67 -130 4 -482 c2 -360 6 -492 16 -521 18 -54 61 -93 114 -101
67 -11 77 -20 77 -68 0 -24 -5 -48 -12 -55 -14 -14 -694 -17 -716 -4 -7 5 -15
25 -18 44 -8 45 17 72 73 81 46 8 87 37 107 76 33 63 36 177 36 1356 0 1220
-2 1295 -42 1366 -20 36 -71 69 -108 69 -42 0 -50 10 -50 65 0 43 4 54 18 58
9 3 164 5 343 6 251 1 329 -2 343 -12z m2358 1 c17 -14 16 0 49 -640 6 -120 9
-224 6 -233 -8 -18 -67 -21 -85 -3 -7 7 -12 28 -12 48 0 19 -9 89 -20 155 -56
328 -152 482 -331 529 -79 20 -319 32 -347 17 l-22 -12 2 -637 3 -637 135 0
c127 0 138 2 191 28 93 45 129 119 155 316 9 64 21 119 27 123 22 14 56 8 67
-11 6 -13 10 -198 10 -531 0 -333 -4 -518 -10 -531 -11 -20 -64 -27 -75 -10
-3 5 -12 61 -20 123 -28 216 -69 296 -174 332 -48 18 -244 32 -285 22 l-26 -6
2 -708 3 -707 155 -3 c120 -2 169 1 217 13 147 40 244 160 309 384 26 90 74
354 74 407 0 17 6 37 14 43 18 15 64 4 75 -18 5 -9 5 -78 1 -156 -5 -77 -14
-239 -19 -360 -20 -396 -23 -425 -38 -441 -12 -12 -109 -14 -656 -14 -353 0
-648 4 -655 8 -7 5 -15 25 -18 44 -8 47 17 73 78 82 79 12 112 59 128 187 14
114 14 2374 0 2488 -6 46 -20 100 -30 121 -20 40 -69 70 -114 70 -30 0 -66 32
-66 58 0 34 12 61 29 65 9 3 295 5 637 6 482 1 624 -2 636 -11z m1780 0 c14
-11 18 -56 27 -273 7 -143 16 -349 21 -458 15 -310 15 -316 -17 -328 -18 -6
-35 -7 -48 -1 -18 8 -22 25 -34 128 -44 413 -117 624 -255 733 -53 42 -141 74
-206 75 l-55 1 0 -1355 c0 -1292 1 -1357 18 -1403 24 -60 68 -95 133 -103 76
-10 84 -17 84 -73 0 -35 -4 -51 -16 -55 -9 -3 -185 -6 -393 -6 -280 0 -380 3
-389 12 -7 7 -12 31 -12 55 0 50 11 57 94 68 61 8 108 51 128 116 11 36 13
295 13 1394 l0 1350 -38 3 c-40 3 -116 -18 -179 -49 -166 -84 -248 -304 -303
-821 -4 -31 -13 -62 -20 -68 -18 -15 -71 -4 -79 16 -5 13 -2 94 24 704 5 124
10 246 10 272 0 84 -60 78 754 78 562 0 726 -3 738 -12z m1640 0 c14 -11 18
-56 27 -273 7 -143 16 -349 21 -458 15 -310 15 -316 -17 -328 -18 -6 -35 -7
-48 -1 -18 8 -22 25 -34 128 -44 413 -117 624 -255 733 -53 42 -141 74 -206
75 l-55 1 0 -1355 c0 -1292 1 -1357 18 -1403 24 -60 68 -95 133 -103 76 -10
84 -17 84 -73 0 -35 -4 -51 -16 -55 -9 -3 -185 -6 -393 -6 -280 0 -380 3 -389
12 -7 7 -12 31 -12 55 0 50 11 57 94 68 61 8 108 51 128 116 11 36 13 295 13
1394 l0 1350 -38 3 c-40 3 -116 -18 -179 -49 -166 -84 -248 -304 -303 -821 -4
-31 -13 -62 -20 -68 -18 -15 -71 -4 -79 16 -5 13 -2 94 24 704 5 124 10 246
10 272 0 84 -60 78 754 78 562 0 726 -3 738 -12z m928 -8 c5 -8 10 -32 10 -53
0 -41 -12 -50 -84 -62 -58 -10 -100 -56 -117 -130 -21 -89 -21 -2511 0 -2600
18 -80 57 -118 139 -134 63 -12 72 -21 72 -71 0 -61 4 -60 -389 -60 -401 0
-385 -3 -379 72 3 46 3 46 95 68 49 12 88 49 105 100 17 49 24 2504 8 2600 -6
36 -20 79 -31 96 -20 33 -80 64 -122 64 -34 0 -47 19 -47 67 0 29 5 45 18 52
11 7 138 10 365 8 296 -2 349 -4 357 -17z m874 7 c13 -9 17 -24 14 -56 -3 -48
-12 -57 -72 -66 -47 -8 -89 -47 -107 -101 -16 -47 -26 -1364 -11 -1364 15 0
24 15 104 170 202 388 456 902 477 965 14 40 25 104 28 150 5 99 -13 134 -84
166 -27 12 -55 25 -63 29 -23 11 -26 91 -4 107 14 10 89 13 316 13 285 0 299
-1 318 -20 23 -23 26 -68 8 -91 -7 -9 -34 -24 -60 -33 -90 -33 -191 -138 -287
-298 -50 -83 -264 -484 -337 -630 l-48 -96 17 -49 c20 -62 16 -50 297 -824
132 -361 256 -694 278 -740 49 -106 106 -178 165 -209 45 -24 57 -42 57 -87 0
-50 -14 -53 -256 -53 -130 0 -233 4 -244 10 -10 5 -22 24 -25 42 -9 38 -54
175 -125 383 -63 182 -254 739 -317 925 -51 149 -59 166 -78 150 -7 -6 -43
-69 -79 -141 l-67 -130 4 -482 c2 -360 6 -492 16 -521 18 -54 61 -93 114 -101
67 -11 77 -20 77 -68 0 -24 -5 -48 -12 -55 -14 -14 -694 -17 -716 -4 -7 5 -15
25 -18 44 -8 45 17 72 73 81 46 8 87 37 107 76 33 63 36 177 36 1356 0 1220
-2 1295 -42 1366 -20 36 -71 69 -108 69 -42 0 -50 10 -50 65 0 43 4 54 18 58
9 3 164 5 343 6 251 1 329 -2 343 -12z m-6354 -3685 c67 -33 113 -96 130 -179
16 -73 7 -87 -55 -91 -75 -5 -91 2 -107 50 -17 54 -57 83 -113 83 -70 0 -118
-60 -95 -119 12 -34 56 -60 155 -92 137 -45 181 -76 221 -154 26 -51 31 -172
10 -244 -23 -80 -90 -147 -168 -170 -200 -58 -382 51 -405 243 -8 66 7 81 77
81 56 0 73 -13 89 -67 20 -72 94 -114 174 -99 45 8 77 45 84 93 7 56 -31 92
-144 133 -48 17 -110 43 -136 58 -205 111 -148 458 82 503 59 11 142 -1 201
-29z m677 6 c91 -43 174 -164 202 -296 15 -73 13 -265 -4 -336 -31 -129 -100
-228 -193 -273 -48 -24 -69 -28 -137 -28 -67 0 -88 5 -130 27 -91 48 -148 125
-187 251 -26 85 -31 276 -9 367 32 131 115 251 199 287 82 36 183 36 259 1z
m-2123 2 c25 -9 26 -13 26 -85 0 -72 -1 -76 -26 -85 -14 -6 -92 -10 -174 -10
-137 0 -150 -2 -160 -19 -11 -22 -12 -92 -1 -131 l7 -25 159 -5 160 -5 3 -70
c4 -95 3 -95 -175 -95 l-143 0 -10 -26 c-11 -28 -12 -116 -1 -154 l7 -25 179
-5 180 -5 3 -73 c2 -46 -2 -79 -9 -88 -17 -20 -501 -21 -518 0 -8 9 -10 138
-9 457 l3 443 25 7 c39 11 446 10 474 -1z m542 -18 c52 -27 86 -66 113 -131
20 -46 22 -68 19 -155 -3 -88 -7 -108 -33 -161 -21 -41 -43 -69 -73 -89 -39
-28 -51 -30 -156 -35 -63 -3 -118 -10 -123 -14 -4 -5 -10 -77 -13 -160 l-5
-152 -66 -3 c-47 -2 -69 1 -78 11 -8 11 -11 131 -9 458 l3 443 25 8 c14 4 100
6 191 4 142 -4 172 -7 205 -24z m352 22 l22 -6 -2 -457 -3 -456 -66 -3 c-47
-2 -69 1 -78 11 -8 11 -11 131 -9 458 l3 443 25 7 c33 9 79 10 108 3z m1977
-29 c85 -41 146 -129 175 -255 17 -71 17 -279 1 -350 -34 -142 -114 -245 -214
-275 -69 -20 -369 -21 -386 -1 -8 9 -10 138 -9 457 l3 443 25 8 c14 4 98 6
187 3 149 -4 167 -6 218 -30z m789 25 c25 -9 26 -13 26 -85 0 -72 -1 -76 -26
-85 -14 -6 -92 -10 -174 -10 -137 0 -150 -2 -160 -19 -11 -22 -12 -92 -1 -131
l7 -25 159 -5 160 -5 3 -70 c4 -95 3 -95 -175 -95 l-143 0 -10 -26 c-11 -28
-12 -116 -1 -154 l7 -25 179 -5 180 -5 3 -73 c2 -46 -2 -79 -9 -88 -17 -20
-501 -21 -518 0 -8 9 -10 138 -9 457 l3 443 25 7 c39 11 446 10 474 -1z m710
-26 c14 -14 16 -67 16 -438 0 -327 -3 -426 -13 -440 -10 -14 -25 -17 -72 -14
l-60 3 -3 274 c-1 182 -6 279 -13 288 -7 8 -34 13 -74 13 -78 0 -87 10 -83 86
l3 57 53 17 c66 22 89 42 118 104 12 27 29 53 36 57 22 14 76 10 92 -7z m-426
-246 c7 -7 12 -44 12 -95 0 -74 -2 -83 -21 -94 -23 -12 -123 -8 -136 5 -13 13
-16 152 -4 175 10 18 21 21 74 21 36 0 68 -5 75 -12z m0 -450 c7 -7 12 -43 12
-93 0 -50 -5 -86 -12 -93 -7 -7 -39 -12 -75 -12 -76 0 -83 9 -83 105 0 96 7
105 83 105 36 0 68 -5 75 -12z"/>
<path d="M1852 8448 c-6 -18 -19 -73 -31 -123 -11 -49 -41 -178 -66 -285 -63
-269 -61 -256 -35 -270 29 -15 284 -10 301 7 11 11 -4 98 -51 298 -5 22 -25
112 -45 200 -42 195 -45 205 -55 205 -5 0 -13 -15 -18 -32z"/>
<path d="M3004 6839 c-44 -13 -108 -80 -140 -146 -37 -80 -72 -228 -90 -383
-21 -177 -15 -647 10 -788 34 -196 74 -305 137 -377 43 -48 83 -68 144 -69
120 -1 204 99 254 303 81 328 80 856 -1 1171 -59 232 -168 332 -314 289z"/>
<path d="M9952 6448 c-6 -18 -19 -73 -31 -123 -11 -49 -41 -178 -66 -285 -63
-269 -61 -256 -35 -270 29 -15 284 -10 301 7 11 11 -4 98 -51 298 -5 22 -25
112 -45 200 -42 195 -45 205 -55 205 -5 0 -13 -15 -18 -32z"/>
<path d="M4097 6796 c-4 -10 -7 -389 -7 -842 l0 -824 27 -11 c39 -14 167 3
228 32 163 77 245 279 263 650 17 344 -22 638 -105 803 -36 72 -109 145 -173
173 -73 33 -223 45 -233 19z"/>
<path d="M11038 6804 c-14 -13 -10 -708 4 -722 15 -15 105 -15 166 0 67 17
123 76 153 164 20 58 23 89 23 199 1 147 -15 217 -61 277 -46 59 -95 81 -193
86 -47 2 -88 1 -92 -4z"/>
<path d="M11043 5969 c-10 -10 -13 -109 -13 -426 0 -478 -10 -440 109 -428
134 13 212 77 254 210 29 94 32 334 4 435 -25 92 -74 162 -133 191 -58 28
-201 39 -221 18z"/>
<path d="M3804 1061 c-108 -66 -141 -333 -60 -489 52 -101 176 -119 245 -36
105 128 85 451 -33 523 -43 27 -110 27 -152 2z"/>
<path d="M2180 1070 c-19 -12 -28 -197 -11 -229 10 -18 20 -21 82 -21 113 0
149 32 149 131 0 89 -49 129 -160 129 -25 0 -52 -4 -60 -10z"/>
<path d="M4490 1041 c-11 -22 -12 -470 -1 -511 6 -22 13 -25 64 -28 116 -6
181 37 212 140 30 101 15 275 -28 340 -40 59 -81 78 -163 78 -62 0 -75 -3 -84
-19z"/>
</g>
</svg>
